<svg xmlns="http://www.w3.org/2000/svg" width="64" height="64" viewBox="0 0 64 64"><g stroke="#d8bd85" stroke-width="2.5" stroke-linecap="round" stroke-linejoin="round"><path d="M9 6c0 17 7 27 23 28C48 33 55 23 55 6" fill="none"/><circle cx="32" cy="34" r="4" fill="#203e4b"/><path d="m32 37 12 9-12 15-12-15Z" fill="#88cecf"/><path d="m32 39 5 7-5 12-5-12Z" fill="#edf6eb" stroke="none"/><path d="M32 8v15m-7-8h14m-12-5 10 10m0-10L27 20" stroke="#e5ede1" stroke-width="2"/><path d="M10 39v6m-3-3h6m41-12v6m-3-3h6" fill="none" stroke="#89d4d3"/></g></svg>
