<svg xmlns="http://www.w3.org/2000/svg" width="180" height="90" viewBox="0 0 180 90">
 <ellipse cx="90" cy="78" rx="49" ry="7" fill="#142431"/>
 <g stroke-width="2" stroke-linecap="round" stroke-linejoin="round">
 <path d="m63 22 46 8-8 46-46-8Z" fill="#454055" stroke="#a78baa"/>
 <path d="m75 14 44 9-9 45-44-9Z" fill="#66536f" stroke="#d0a9c6"/>
 <path d="M91 29c-12 1-14 15-3 18 11 3 9 13 1 15m11-32c12 8 3 20-8 17" fill="none" stroke="#ebc9d7" stroke-width="3"/>
 <path d="m90 40 4 5-4 5-4-5Z" fill="#edbc71" stroke="none"/>
 <path d="M49 34c-12 3-14 17-4 23m83-27c11 6 11 18 4 25" fill="none" stroke="#7cb8bb"/>
 <path d="m44 17 3 5-3 5-3-5m85 45 3 5-3 5-3-5" fill="#edbc71" stroke="none"/>
 </g>
</svg>

